<svg xmlns="http://www.w3.org/2000/svg" viewBox="0 0 128 128" role="img" aria-labelledby="title desc">
  <title id="title">FP Estoque</title>
  <desc id="desc">Ícone principal do FP Depósito de Bebidas</desc>
  <defs>
    <linearGradient id="gold" x1="0" y1="0" x2="1" y2="1">
      <stop offset="0" stop-color="#ffd34d"/>
      <stop offset="0.55" stop-color="#f5b400"/>
      <stop offset="1" stop-color="#d89500"/>
    </linearGradient>
  </defs>
  <circle cx="64" cy="64" r="60" fill="#111111" stroke="url(#gold)" stroke-width="7"/>
  <circle cx="64" cy="64" r="50" fill="none" stroke="#ffffff" stroke-width="3"/>
  <g fill="url(#gold)">
    <path d="M40 28l3.2 6.5 7.2 1-5.2 5.1 1.2 7.2-6.4-3.4-6.4 3.4 1.2-7.2-5.2-5.1 7.2-1z"/>
    <path d="M64 24l3.7 7.6 8.4 1.2-6.1 5.9 1.4 8.3-7.4-3.9-7.4 3.9 1.4-8.3-6.1-5.9 8.4-1.2z"/>
    <path d="M88 28l3.2 6.5 7.2 1-5.2 5.1 1.2 7.2-6.4-3.4-6.4 3.4 1.2-7.2-5.2-5.1 7.2-1z"/>
  </g>
  <text x="64" y="88" text-anchor="middle" fill="#ffffff" font-family="Georgia, 'Times New Roman', serif" font-size="50" font-weight="800" letter-spacing="-4">FP</text>
</svg>
