<svg xmlns="http://www.w3.org/2000/svg" viewBox="0 0 512 512" role="img" aria-labelledby="title desc">
  <title id="title">FP Depósito de Bebidas</title>
  <desc id="desc">Emblema circular preto, branco e dourado do FP Depósito de Bebidas</desc>
  <defs>
    <linearGradient id="gold" x1="0" y1="0" x2="1" y2="1">
      <stop offset="0" stop-color="#ffd34d"/>
      <stop offset="0.55" stop-color="#f5b400"/>
      <stop offset="1" stop-color="#d89500"/>
    </linearGradient>
    <filter id="shadow" x="-25%" y="-25%" width="150%" height="150%">
      <feDropShadow dx="0" dy="9" stdDeviation="11" flood-color="#000000" flood-opacity="0.30"/>
    </filter>
    <g id="laurel-left" fill="url(#gold)">
      <path d="M119 424C59 354 48 257 68 179c11-43 29-78 55-106" fill="none" stroke="url(#gold)" stroke-width="10" stroke-linecap="round"/>
      <ellipse cx="103" cy="392" rx="11" ry="26" transform="rotate(-43 103 392)"/>
      <ellipse cx="82" cy="357" rx="11" ry="25" transform="rotate(-31 82 357)"/>
      <ellipse cx="68" cy="319" rx="11" ry="24" transform="rotate(-20 68 319)"/>
      <ellipse cx="61" cy="280" rx="11" ry="24" transform="rotate(-7 61 280)"/>
      <ellipse cx="61" cy="238" rx="11" ry="24" transform="rotate(7 61 238)"/>
      <ellipse cx="69" cy="198" rx="11" ry="24" transform="rotate(20 69 198)"/>
      <ellipse cx="83" cy="158" rx="11" ry="25" transform="rotate(31 83 158)"/>
      <ellipse cx="105" cy="121" rx="11" ry="26" transform="rotate(43 105 121)"/>
      <ellipse cx="120" cy="379" rx="10" ry="24" transform="rotate(37 120 379)"/>
      <ellipse cx="99" cy="342" rx="10" ry="23" transform="rotate(25 99 342)"/>
      <ellipse cx="86" cy="303" rx="10" ry="23" transform="rotate(14 86 303)"/>
      <ellipse cx="80" cy="262" rx="10" ry="23" transform="rotate(1 80 262)"/>
      <ellipse cx="82" cy="221" rx="10" ry="23" transform="rotate(-12 82 221)"/>
      <ellipse cx="92" cy="181" rx="10" ry="23" transform="rotate(-24 92 181)"/>
      <ellipse cx="110" cy="143" rx="10" ry="24" transform="rotate(-36 110 143)"/>
    </g>
  </defs>

  <g filter="url(#shadow)">
    <circle cx="256" cy="256" r="202" fill="#111111" stroke="#ffffff" stroke-width="9"/>
    <circle cx="256" cy="256" r="187" fill="none" stroke="#111111" stroke-width="7"/>
    <circle cx="256" cy="256" r="178" fill="none" stroke="#ffffff" stroke-width="4"/>
  </g>

  <use href="#laurel-left"/>
  <use href="#laurel-left" transform="translate(512 0) scale(-1 1)"/>

  <text x="256" y="103" text-anchor="middle" fill="#ffffff" font-family="Arial, Helvetica, sans-serif" font-size="27" font-weight="800">2024</text>

  <g fill="url(#gold)">
    <path d="M212 121l7 14 16 2-12 11 3 16-14-8-14 8 3-16-12-11 16-2z"/>
    <path d="M256 113l8 17 19 2-14 13 4 19-17-9-17 9 4-19-14-13 19-2z"/>
    <path d="M300 121l7 14 16 2-12 11 3 16-14-8-14 8 3-16-12-11 16-2z"/>
  </g>

  <text x="256" y="259" text-anchor="middle" fill="#ffffff" font-family="Georgia, 'Times New Roman', serif" font-size="104" font-weight="800" letter-spacing="-7">FP</text>
  <text x="256" y="306" text-anchor="middle" fill="#ffffff" font-family="Arial, Helvetica, sans-serif" font-size="18" font-weight="700" letter-spacing="1.4">DEPÓSITO DE BEBIDAS</text>

  <g transform="translate(256 401) scale(0.82)">
    <g transform="translate(-64 -42) rotate(-18)">
      <rect x="-29" y="-42" width="60" height="96" rx="11" fill="url(#gold)" stroke="#ffffff" stroke-width="5"/>
      <path d="M-29-23h60v13c-8-2-13 8-21 3-8-5-14 7-22 2-8-4-10-9-17-5z" fill="#ffffff"/>
      <path d="M31-19c26-7 32 10 25 28-5 13-16 24-28 29" fill="none" stroke="url(#gold)" stroke-width="10" stroke-linecap="round"/>
      <path d="M-18 43h39" stroke="#111111" stroke-width="4" stroke-linecap="round" opacity="0.75"/>
    </g>
    <g transform="translate(64 -42) rotate(18)">
      <rect x="-31" y="-42" width="60" height="96" rx="11" fill="url(#gold)" stroke="#ffffff" stroke-width="5"/>
      <path d="M-31-23h60v13c-8-2-13 8-21 3-8-5-14 7-22 2-8-4-10-9-17-5z" fill="#ffffff"/>
      <path d="M-31-19c-26-7-32 10-25 28 5 13 16 24 28 29" fill="none" stroke="url(#gold)" stroke-width="10" stroke-linecap="round"/>
      <path d="M-20 43h39" stroke="#111111" stroke-width="4" stroke-linecap="round" opacity="0.75"/>
    </g>
  </g>
</svg>
